<svg width="177" height="198" viewBox="0 0 177 198" fill="none" xmlns="http://www.w3.org/2000/svg">
<path d="M40.5042 35.5496C63.4242 16.9896 113.204 11.5996 148.044 43.4996C183.774 76.2096 187.704 133.09 152.024 170.35C136.054 187.03 116.214 195.84 93.2242 197.05C80.5142 197.72 56.2842 190.3 56.3242 189.89C57.3542 189.89 58.3942 189.81 59.4142 189.9C84.9942 192.18 106.584 183.81 123.154 164.33C145.724 137.81 145.144 100.41 125.814 76.7896C113.604 61.8596 91.0141 55.6996 72.2441 62.3196C70.9341 62.7796 69.6341 63.2396 68.2041 63.7496C58.9441 54.3196 49.7942 45.0096 40.5042 35.5496Z" fill="#214A9C"/>
<path d="M31.4642 65.84C34.3195 65.84 36.6342 63.5253 36.6342 60.67C36.6342 57.8147 34.3195 55.5 31.4642 55.5C28.6089 55.5 26.2942 57.8147 26.2942 60.67C26.2942 63.5253 28.6089 65.84 31.4642 65.84Z" fill="#214A9C"/>
<path d="M5.00411 9.58C7.64956 9.58 9.79411 7.43544 9.79411 4.79C9.79411 2.14456 7.64956 0 5.00411 0C2.35867 0 0.214111 2.14456 0.214111 4.79C0.214111 7.43544 2.35867 9.58 5.00411 9.58Z" fill="#214A9C"/>
<path d="M7.2443 63.0198C10.3316 63.0198 12.8343 60.5171 12.8343 57.4298C12.8343 54.3426 10.3316 51.8398 7.2443 51.8398C4.15702 51.8398 1.6543 54.3426 1.6543 57.4298C1.6543 60.5171 4.15702 63.0198 7.2443 63.0198Z" fill="#214A9C"/>
<path d="M30.7242 95.7898C32.8726 95.7898 34.6142 94.0482 34.6142 91.8998C34.6142 89.7514 32.8726 88.0098 30.7242 88.0098C28.5758 88.0098 26.8342 89.7514 26.8342 91.8998C26.8342 94.0482 28.5758 95.7898 30.7242 95.7898Z" fill="#214A9C"/>
<path d="M8.3643 99.3302C12.2082 99.3302 15.3243 96.2141 15.3243 92.3702C15.3243 88.5263 12.2082 85.4102 8.3643 85.4102C4.52039 85.4102 1.4043 88.5263 1.4043 92.3702C1.4043 96.2141 4.52039 99.3302 8.3643 99.3302Z" fill="#214A9C"/>
<path d="M18.9043 156.55C20.9864 156.55 22.6743 154.862 22.6743 152.78C22.6743 150.698 20.9864 149.01 18.9043 149.01C16.8222 149.01 15.1343 150.698 15.1343 152.78C15.1343 154.862 16.8222 156.55 18.9043 156.55Z" fill="#214A9C"/>
<path d="M26.9344 167.36C28.5581 167.36 29.8744 166.044 29.8744 164.42C29.8744 162.797 28.5581 161.48 26.9344 161.48C25.3107 161.48 23.9944 162.797 23.9944 164.42C23.9944 166.044 25.3107 167.36 26.9344 167.36Z" fill="#214A9C"/>
<path d="M35.2742 140.42C37.4778 140.42 39.2642 138.634 39.2642 136.43C39.2642 134.227 37.4778 132.44 35.2742 132.44C33.0706 132.44 31.2842 134.227 31.2842 136.43C31.2842 138.634 33.0706 140.42 35.2742 140.42Z" fill="#214A9C"/>
<path d="M10.7543 138.95C13.8416 138.95 16.3443 136.447 16.3443 133.36C16.3443 130.272 13.8416 127.77 10.7543 127.77C7.66704 127.77 5.16431 130.272 5.16431 133.36C5.16431 136.447 7.66704 138.95 10.7543 138.95Z" fill="#214A9C"/>
<path d="M24.1742 146.22C27.2615 146.22 29.7642 143.717 29.7642 140.63C29.7642 137.543 27.2615 135.04 24.1742 135.04C21.087 135.04 18.5842 137.543 18.5842 140.63C18.5842 143.717 21.087 146.22 24.1742 146.22Z" fill="#214A9C"/>
<path d="M108.914 161.7C110.67 161.7 112.094 160.276 112.094 158.52C112.094 156.764 110.67 155.34 108.914 155.34C107.158 155.34 105.734 156.764 105.734 158.52C105.734 160.276 107.158 161.7 108.914 161.7Z" fill="#214A9C"/>
<path d="M125.124 145.78C126.162 145.78 127.004 144.938 127.004 143.9C127.004 142.861 126.162 142.02 125.124 142.02C124.086 142.02 123.244 142.861 123.244 143.9C123.244 144.938 124.086 145.78 125.124 145.78Z" fill="#214A9C"/>
<path d="M24.3441 26.2297C25.3824 26.2297 26.2241 25.388 26.2241 24.3497C26.2241 23.3114 25.3824 22.4697 24.3441 22.4697C23.3058 22.4697 22.4641 23.3114 22.4641 24.3497C22.4641 25.388 23.3058 26.2297 24.3441 26.2297Z" fill="#214A9C"/>
<path d="M33.8942 117.72C35.9929 117.72 37.6942 116.019 37.6942 113.92C37.6942 111.821 35.9929 110.12 33.8942 110.12C31.7956 110.12 30.0942 111.821 30.0942 113.92C30.0942 116.019 31.7956 117.72 33.8942 117.72Z" fill="#214A9C"/>
<path d="M38.1743 128.57C39.5826 128.57 40.7243 127.428 40.7243 126.02C40.7243 124.611 39.5826 123.47 38.1743 123.47C36.7659 123.47 35.6243 124.611 35.6243 126.02C35.6243 127.428 36.7659 128.57 38.1743 128.57Z" fill="#214A9C"/>
<path d="M118.544 154.59C119.952 154.59 121.094 153.449 121.094 152.04C121.094 150.632 119.952 149.49 118.544 149.49C117.136 149.49 115.994 150.632 115.994 152.04C115.994 153.449 117.136 154.59 118.544 154.59Z" fill="#214A9C"/>
<path d="M48.9742 181.16C50.7305 181.16 52.1542 179.736 52.1542 177.98C52.1542 176.224 50.7305 174.8 48.9742 174.8C47.2179 174.8 45.7942 176.224 45.7942 177.98C45.7942 179.736 47.2179 181.16 48.9742 181.16Z" fill="#214A9C"/>
<path d="M70.4342 182.37C71.4725 182.37 72.3142 181.529 72.3142 180.49C72.3142 179.452 71.4725 178.61 70.4342 178.61C69.3959 178.61 68.5542 179.452 68.5542 180.49C68.5542 181.529 69.3959 182.37 70.4342 182.37Z" fill="#214A9C"/>
<path d="M60.0942 183.27C61.5025 183.27 62.6442 182.128 62.6442 180.72C62.6442 179.312 61.5025 178.17 60.0942 178.17C58.6859 178.17 57.5442 179.312 57.5442 180.72C57.5442 182.128 58.6859 183.27 60.0942 183.27Z" fill="#214A9C"/>
<path d="M84.1543 165.9C85.4025 165.9 86.4143 164.888 86.4143 163.64C86.4143 162.392 85.4025 161.38 84.1543 161.38C82.9061 161.38 81.8943 162.392 81.8943 163.64C81.8943 164.888 82.9061 165.9 84.1543 165.9Z" fill="#214A9C"/>
<path d="M62.7543 176.07C65.698 176.07 68.0843 173.684 68.0843 170.74C68.0843 167.796 65.698 165.41 62.7543 165.41C59.8106 165.41 57.4243 167.796 57.4243 170.74C57.4243 173.684 59.8106 176.07 62.7543 176.07Z" fill="#214A9C"/>
<path d="M59.1442 161.67C61.2429 161.67 62.9442 159.969 62.9442 157.87C62.9442 155.772 61.2429 154.07 59.1442 154.07C57.0456 154.07 55.3442 155.772 55.3442 157.87C55.3442 159.969 57.0456 161.67 59.1442 161.67Z" fill="#214A9C"/>
<path d="M42.354 174.84C47.0209 174.84 50.8041 171.057 50.8041 166.39C50.8041 161.724 47.0209 157.94 42.354 157.94C37.6872 157.94 33.9041 161.724 33.9041 166.39C33.9041 171.057 37.6872 174.84 42.354 174.84Z" fill="#214A9C"/>
<path d="M73.3342 164.38C75.4329 164.38 77.1342 162.679 77.1342 160.58C77.1342 158.482 75.4329 156.78 73.3342 156.78C71.2355 156.78 69.5342 158.482 69.5342 160.58C69.5342 162.679 71.2355 164.38 73.3342 164.38Z" fill="#214A9C"/>
<path d="M5.21423 19.9797C6.66674 19.9797 7.84423 18.8022 7.84423 17.3497C7.84423 15.8972 6.66674 14.7197 5.21423 14.7197C3.76172 14.7197 2.58423 15.8972 2.58423 17.3497C2.58423 18.8022 3.76172 19.9797 5.21423 19.9797Z" fill="#214A9C"/>
<path d="M15.7342 19.94C17.7776 19.94 19.4342 18.2835 19.4342 16.24C19.4342 14.1966 17.7776 12.54 15.7342 12.54C13.6907 12.54 12.0342 14.1966 12.0342 16.24C12.0342 18.2835 13.6907 19.94 15.7342 19.94Z" fill="#214A9C"/>
<path d="M49.3444 166.03C50.6944 163.97 50.1144 161.21 48.0644 159.86C47.6144 159.57 47.1344 159.37 46.6444 159.25L47.4844 151.06C48.9144 150.77 50.2244 149.94 51.0844 148.63C52.7944 146.03 52.0644 142.53 49.4644 140.82C46.8644 139.11 43.3644 139.84 41.6544 142.44C40.8844 143.62 40.6144 144.97 40.7844 146.26L36.5344 147.19C36.1944 146.62 35.7344 146.12 35.1544 145.74C33.0944 144.39 30.3344 144.97 28.9844 147.02C27.6344 149.08 28.2144 151.84 30.2644 153.19C32.3244 154.54 35.0844 153.96 36.4344 151.91C37.0044 151.05 37.2244 150.06 37.1444 149.11L41.3944 148.18C41.8244 148.99 42.4544 149.71 43.2844 150.25C43.9644 150.7 44.7144 150.97 45.4744 151.1L44.6344 159.25C43.5544 159.5 42.5544 160.15 41.9044 161.15C40.5544 163.21 41.1344 165.97 43.1844 167.32C45.2444 168.67 48.0044 168.09 49.3544 166.04L49.3444 166.03Z" fill="#214A9C"/>
<path d="M32.7242 56.7598C30.8442 56.7598 29.3142 58.2898 29.3142 60.1698C29.3142 60.8498 29.5142 61.4798 29.8542 62.0098L24.2942 67.9898C23.3742 67.3598 22.2542 66.9898 21.0542 66.9898C18.3542 66.9898 16.1042 68.8498 15.4842 71.3598L9.31418 71.1298C9.12418 69.6398 7.85418 68.4998 6.31418 68.4998C4.64418 68.4998 3.28418 69.8598 3.28418 71.5298C3.28418 73.1998 4.64418 74.5598 6.31418 74.5598C7.53418 74.5598 8.57418 73.8398 9.05418 72.8098L15.3242 73.0498C15.4842 76.0798 17.9842 78.4898 21.0542 78.4898C21.5342 78.4898 21.9942 78.4198 22.4442 78.3098L24.0842 81.9098C23.7242 82.3198 23.5042 82.8498 23.5042 83.4298C23.5042 84.7098 24.5442 85.7398 25.8142 85.7398C27.0842 85.7398 28.1242 84.6998 28.1242 83.4298C28.1242 82.1598 27.0842 81.1198 25.8142 81.1198C25.7342 81.1198 25.6542 81.1198 25.5742 81.1298L23.9942 77.6598C25.6642 76.6598 26.7942 74.8298 26.7942 72.7398C26.7942 71.3798 26.3142 70.1298 25.5242 69.1398L31.0842 63.1698C31.5742 63.4398 32.1242 63.5898 32.7142 63.5898C34.5942 63.5898 36.1242 62.0598 36.1242 60.1798C36.1242 58.2998 34.5942 56.7698 32.7142 56.7698L32.7242 56.7598Z" fill="#214A9C"/>
<path d="M78.7141 180.81C81.3209 180.81 83.4341 178.697 83.4341 176.09C83.4341 173.483 81.3209 171.37 78.7141 171.37C76.1074 171.37 73.9941 173.483 73.9941 176.09C73.9941 178.697 76.1074 180.81 78.7141 180.81Z" fill="#214A9C"/>
<path d="M97.6641 171.27C101.072 171.27 103.834 168.507 103.834 165.1C103.834 161.692 101.072 158.93 97.6641 158.93C94.2565 158.93 91.4941 161.692 91.4941 165.1C91.4941 168.507 94.2565 171.27 97.6641 171.27Z" fill="#214A9C"/>
<path d="M75.5787 161.645L72.6267 162.451L77.312 179.613L80.264 178.807L75.5787 161.645Z" fill="#214A9C"/>
<path d="M93.3599 165.892L77.8201 174.552L79.3097 177.225L94.8495 168.565L93.3599 165.892Z" fill="#214A9C"/>
<path d="M18.2742 97.3202C14.5742 99.4502 13.3042 104.17 15.4242 107.87C15.6242 108.22 15.8542 108.53 16.0942 108.84L13.4442 111.89C12.0442 110.89 10.1342 110.73 8.54423 111.65C6.36423 112.9 5.62423 115.68 6.87423 117.85C8.12423 120.03 10.9042 120.77 13.0742 119.52C13.2242 119.44 13.3642 119.34 13.4942 119.24L22.1742 124C21.5142 125.44 21.5342 127.16 22.3842 128.63C23.7742 131.05 26.8742 131.89 29.2942 130.5C31.7142 129.11 32.5542 126.01 31.1642 123.59C29.7742 121.17 26.6742 120.33 24.2542 121.72C24.0142 121.86 23.7842 122.02 23.5742 122.19L14.9342 117.45C15.4742 116.27 15.4942 114.87 14.9042 113.62L17.7442 110.36C20.1142 111.99 23.3042 112.23 25.9742 110.7C29.6742 108.57 30.9442 103.85 28.8242 100.15C26.6942 96.4502 21.9742 95.1802 18.2742 97.3002V97.3202Z" fill="#214A9C"/>
<path d="M32.9142 31.1698C30.0842 31.4498 28.0142 33.9698 28.2942 36.7998C28.3942 37.7998 28.7742 38.6998 29.3442 39.4398L23.2742 46.9098C22.7942 46.7598 22.2642 46.6998 21.7342 46.7598C21.7142 46.7598 21.7042 46.7598 21.6842 46.7598L17.8542 41.6798C20.7442 39.4298 22.4542 35.7898 22.0742 31.8698C21.4742 25.7898 16.0642 21.3498 9.9842 21.9498C3.9042 22.5498 -0.545795 27.9698 0.0542049 34.0498C0.654205 40.1298 6.06421 44.5698 12.1442 43.9698C13.3942 43.8498 14.5642 43.5098 15.6442 43.0198L19.3242 47.8998C18.5242 48.7098 18.0742 49.8498 18.1942 51.0698C18.4042 53.2398 20.3342 54.8198 22.5042 54.6098C24.6742 54.3998 26.2542 52.4698 26.0442 50.2998C25.9742 49.5998 25.7242 48.9598 25.3442 48.4198L31.3642 41.0198C32.1442 41.3598 33.0142 41.5098 33.9242 41.4198C36.7542 41.1398 38.8242 38.6198 38.5442 35.7898C38.2642 32.9598 35.7442 30.8898 32.9142 31.1698Z" fill="#214A9C"/>
</svg>
