<svg width="342" height="131" viewBox="0 0 342 131" fill="none" xmlns="http://www.w3.org/2000/svg">
<g clip-path="url(#clip0_1958_8866)">
<path d="M136.167 7.11719H134.633V123.77H136.167V7.11719Z" fill="white"/>
<path d="M26.9141 23.6269C42.1379 11.3032 75.2213 7.72594 98.3914 28.9141C122.132 50.6329 124.748 88.4098 101.047 113.156C90.4255 124.241 77.2472 130.078 61.9643 130.884C53.5263 131.336 37.4173 126.403 37.437 126.128C38.1254 126.128 38.8138 126.069 39.4826 126.128C56.4767 127.641 70.8351 122.079 81.8498 109.146C96.8376 91.535 96.4639 66.691 83.62 51.0063C75.4966 41.1002 60.4892 37.0119 48.019 41.395C47.1535 41.7095 46.2881 42.0043 45.3243 42.3384C39.1679 36.0685 33.0901 29.8968 26.9141 23.6072V23.6269Z" fill="white"/>
<path d="M20.9108 43.7386C22.8118 43.7386 24.3529 42.1987 24.3529 40.299C24.3529 38.3993 22.8118 36.8594 20.9108 36.8594C19.0098 36.8594 17.4688 38.3993 17.4688 40.299C17.4688 42.1987 19.0098 43.7386 20.9108 43.7386Z" fill="white"/>
<path d="M3.32311 6.38385C5.0829 6.38385 6.50949 4.95828 6.50949 3.19974C6.50949 1.4412 5.0829 0.015625 3.32311 0.015625C1.56331 0.015625 0.136719 1.4412 0.136719 3.19974C0.136719 4.95828 1.56331 6.38385 3.32311 6.38385Z" fill="white"/>
<path d="M4.82292 41.8593C6.87601 41.8593 8.54037 40.1961 8.54037 38.1445C8.54037 36.0929 6.87601 34.4297 4.82292 34.4297C2.76983 34.4297 1.10547 36.0929 1.10547 38.1445C1.10547 40.1961 2.76983 41.8593 4.82292 41.8593Z" fill="white"/>
<path d="M20.4165 63.6184C21.8395 63.6184 22.9931 62.4656 22.9931 61.0436C22.9931 59.6215 21.8395 58.4688 20.4165 58.4688C18.9934 58.4688 17.8398 59.6215 17.8398 61.0436C17.8398 62.4656 18.9934 63.6184 20.4165 63.6184Z" fill="white"/>
<path d="M5.57145 65.9801C8.12423 65.9801 10.1937 63.9121 10.1937 61.3611C10.1937 58.8102 8.12423 56.7422 5.57145 56.7422C3.01866 56.7422 0.949219 58.8102 0.949219 61.3611C0.949219 63.9121 3.01866 65.9801 5.57145 65.9801Z" fill="white"/>
<path d="M12.5722 103.969C13.9518 103.969 15.0702 102.851 15.0702 101.473C15.0702 100.094 13.9518 98.9766 12.5722 98.9766C11.1926 98.9766 10.0742 100.094 10.0742 101.473C10.0742 102.851 11.1926 103.969 12.5722 103.969Z" fill="white"/>
<path d="M17.9004 111.15C18.9758 111.15 19.8476 110.278 19.8476 109.204C19.8476 108.129 18.9758 107.258 17.9004 107.258C16.8249 107.258 15.9531 108.129 15.9531 109.204C15.9531 110.278 16.8249 111.15 17.9004 111.15Z" fill="white"/>
<path d="M23.4483 93.2522C24.9148 93.2522 26.1036 92.0642 26.1036 90.5987C26.1036 89.1333 24.9148 87.9453 23.4483 87.9453C21.9818 87.9453 20.793 89.1333 20.793 90.5987C20.793 92.0642 21.9818 93.2522 23.4483 93.2522Z" fill="white"/>
<path d="M7.14323 92.2968C9.19633 92.2968 10.8607 90.6336 10.8607 88.582C10.8607 86.5304 9.19633 84.8672 7.14323 84.8672C5.09014 84.8672 3.42578 86.5304 3.42578 88.582C3.42578 90.6336 5.09014 92.2968 7.14323 92.2968Z" fill="white"/>
<path d="M16.0729 97.1093C18.126 97.1093 19.7904 95.4461 19.7904 93.3945C19.7904 91.3429 18.126 89.6797 16.0729 89.6797C14.0198 89.6797 12.3555 91.3429 12.3555 93.3945C12.3555 95.4461 14.0198 97.1093 16.0729 97.1093Z" fill="white"/>
<path d="M72.386 107.417C73.5592 107.417 74.5102 106.467 74.5102 105.295C74.5102 104.122 73.5592 103.172 72.386 103.172C71.2128 103.172 70.2617 104.122 70.2617 105.295C70.2617 106.467 71.2128 107.417 72.386 107.417Z" fill="white"/>
<path d="M83.1455 96.8362C83.8408 96.8362 84.4044 96.273 84.4044 95.5782C84.4044 94.8835 83.8408 94.3203 83.1455 94.3203C82.4503 94.3203 81.8867 94.8835 81.8867 95.5782C81.8867 96.273 82.4503 96.8362 83.1455 96.8362Z" fill="white"/>
<path d="M16.1729 17.4455C16.8681 17.4455 17.4317 16.8823 17.4317 16.1876C17.4317 15.4929 16.8681 14.9297 16.1729 14.9297C15.4777 14.9297 14.9141 15.4929 14.9141 16.1876C14.9141 16.8823 15.4777 17.4455 16.1729 17.4455Z" fill="white"/>
<path d="M22.5294 78.1801C23.9198 78.1801 25.047 77.0537 25.047 75.6643C25.047 74.2748 23.9198 73.1484 22.5294 73.1484C21.1389 73.1484 20.0117 74.2748 20.0117 75.6643C20.0117 77.0537 21.1389 78.1801 22.5294 78.1801Z" fill="white"/>
<path d="M25.379 85.3963C26.3133 85.3963 27.0706 84.6395 27.0706 83.706C27.0706 82.7724 26.3133 82.0156 25.379 82.0156C24.4448 82.0156 23.6875 82.7724 23.6875 83.706C23.6875 84.6395 24.4448 85.3963 25.379 85.3963Z" fill="white"/>
<path d="M78.7814 102.678C79.7156 102.678 80.4729 101.921 80.4729 100.987C80.4729 100.054 79.7156 99.2969 78.7814 99.2969C77.8472 99.2969 77.0898 100.054 77.0898 100.987C77.0898 101.921 77.8472 102.678 78.7814 102.678Z" fill="white"/>
<path d="M32.5539 120.324C33.7271 120.324 34.6782 119.373 34.6782 118.201C34.6782 117.029 33.7271 116.078 32.5539 116.078C31.3807 116.078 30.4297 117.029 30.4297 118.201C30.4297 119.373 31.3807 120.324 32.5539 120.324Z" fill="white"/>
<path d="M46.8174 121.133C47.5126 121.133 48.0762 120.57 48.0762 119.875C48.0762 119.18 47.5126 118.617 46.8174 118.617C46.1222 118.617 45.5586 119.18 45.5586 119.875C45.5586 120.57 46.1222 121.133 46.8174 121.133Z" fill="white"/>
<path d="M39.9259 121.717C40.8601 121.717 41.6175 120.96 41.6175 120.026C41.6175 119.093 40.8601 118.336 39.9259 118.336C38.9917 118.336 38.2344 119.093 38.2344 120.026C38.2344 120.96 38.9917 121.717 39.9259 121.717Z" fill="white"/>
<path d="M55.9206 110.183C56.7462 110.183 57.4155 109.514 57.4155 108.689C57.4155 107.864 56.7462 107.195 55.9206 107.195C55.095 107.195 54.4258 107.864 54.4258 108.689C54.4258 109.514 55.095 110.183 55.9206 110.183Z" fill="white"/>
<path d="M41.7045 116.943C43.6598 116.943 45.2449 115.359 45.2449 113.405C45.2449 111.451 43.6598 109.867 41.7045 109.867C39.7492 109.867 38.1641 111.451 38.1641 113.405C38.1641 115.359 39.7492 116.943 41.7045 116.943Z" fill="white"/>
<path d="M39.3028 107.368C40.6932 107.368 41.8204 106.241 41.8204 104.852C41.8204 103.462 40.6932 102.336 39.3028 102.336C37.9123 102.336 36.7852 103.462 36.7852 104.852C36.7852 106.241 37.9123 107.368 39.3028 107.368Z" fill="white"/>
<path d="M28.1487 116.117C31.2446 116.117 33.7543 113.609 33.7543 110.516C33.7543 107.422 31.2446 104.914 28.1487 104.914C25.0527 104.914 22.543 107.422 22.543 110.516C22.543 113.609 25.0527 116.117 28.1487 116.117Z" fill="white"/>
<path d="M48.7442 109.18C50.1347 109.18 51.2618 108.054 51.2618 106.664C51.2618 105.275 50.1347 104.148 48.7442 104.148C47.3537 104.148 46.2266 105.275 46.2266 106.664C46.2266 108.054 47.3537 109.18 48.7442 109.18Z" fill="white"/>
<path d="M3.4693 13.2877C4.4361 13.2877 5.21984 12.5045 5.21984 11.5384C5.21984 10.5723 4.4361 9.78906 3.4693 9.78906C2.5025 9.78906 1.71875 10.5723 1.71875 11.5384C1.71875 12.5045 2.5025 13.2877 3.4693 13.2877Z" fill="white"/>
<path d="M10.4469 13.2653C11.8048 13.2653 12.9055 12.1653 12.9055 10.8084C12.9055 9.45154 11.8048 8.35156 10.4469 8.35156C9.08905 8.35156 7.98828 9.45154 7.98828 10.8084C7.98828 12.1653 9.08905 13.2653 10.4469 13.2653Z" fill="white"/>
<path d="M32.7899 110.291C33.6946 108.915 33.3013 107.087 31.9441 106.203C31.6491 106.006 31.3343 105.869 31 105.79L31.5704 100.346C32.5145 100.149 33.3996 99.5988 33.97 98.734C35.1108 97.0044 34.6191 94.6851 32.8882 93.5451C31.1573 92.4051 28.8364 92.8965 27.6956 94.6261C27.1842 95.4123 27.0072 96.3164 27.1252 97.1616L24.2928 97.7709C24.0765 97.3975 23.7618 97.0633 23.3684 96.8078C21.9915 95.9037 20.1623 96.2968 19.2772 97.653C18.3724 99.0288 18.7658 100.857 20.123 101.741C21.4801 102.626 23.329 102.252 24.2141 100.896C24.5879 100.326 24.7452 99.6774 24.6862 99.0288L27.4989 98.4195C27.7939 98.9502 28.207 99.4416 28.7577 99.7954C29.2101 100.09 29.7018 100.267 30.2132 100.365L29.6625 105.771C28.9347 105.928 28.2856 106.36 27.8529 107.028C26.9481 108.404 27.3415 110.232 28.6987 111.117C30.0559 112.001 31.9048 111.628 32.7899 110.272V110.291Z" fill="white"/>
<path d="M21.7618 37.7112C20.503 37.7112 19.4999 38.7332 19.4999 39.9715C19.4999 40.4236 19.6376 40.8363 19.8539 41.1901L16.1562 45.1604C15.5464 44.7477 14.799 44.4922 14.0122 44.4922C12.2224 44.4922 10.7275 45.7304 10.3145 47.3815L6.22329 47.2242C6.08561 46.2415 5.2595 45.4749 4.23671 45.4749C3.11558 45.4749 2.23047 46.3791 2.23047 47.4797C2.23047 48.5804 3.13525 49.4845 4.23671 49.4845C5.04314 49.4845 5.73156 49.0128 6.06594 48.3249L10.2358 48.4821C10.3341 50.487 12.006 52.0987 14.0516 52.0987C14.3663 52.0987 14.681 52.0594 14.976 51.9807L16.0578 54.3786C15.8218 54.6538 15.6841 55.0076 15.6841 55.3811C15.6841 56.2262 16.3725 56.9142 17.2183 56.9142C18.0641 56.9142 18.7525 56.2262 18.7525 55.3811C18.7525 54.5359 18.0641 53.848 17.2183 53.848C17.1593 53.848 17.1199 53.848 17.0609 53.848L16.0185 51.5483C17.1396 50.8801 17.8674 49.6614 17.8674 48.2856C17.8674 47.3815 17.5527 46.5559 17.0216 45.8877L20.7194 41.9174C21.0341 42.0943 21.4078 42.1925 21.8012 42.1925C23.06 42.1925 24.0631 41.1705 24.0631 39.9322C24.0631 38.6939 23.0403 37.6719 21.8012 37.6719L21.7618 37.7112Z" fill="white"/>
<path d="M52.3189 120.086C54.057 120.086 55.466 118.679 55.466 116.942C55.466 115.205 54.057 113.797 52.3189 113.797C50.5809 113.797 49.1719 115.205 49.1719 116.942C49.1719 118.679 50.5809 120.086 52.3189 120.086Z" fill="white"/>
<path d="M64.9115 113.739C67.171 113.739 69.0026 111.909 69.0026 109.651C69.0026 107.393 67.171 105.562 64.9115 105.562C62.652 105.562 60.8203 107.393 60.8203 109.651C60.8203 111.909 62.652 113.739 64.9115 113.739Z" fill="white"/>
<path d="M50.22 107.381L48.2656 107.914L51.3789 119.31L53.3333 118.777L50.22 107.381Z" fill="white"/>
<path d="M62.0369 110.195L51.7109 115.945L52.6971 117.714L63.0231 111.963L62.0369 110.195Z" fill="white"/>
<path d="M12.1404 64.6425C9.68178 66.0577 8.83601 69.1829 10.2522 71.6397C10.3899 71.8756 10.5275 72.0721 10.7046 72.2884L8.93435 74.3128C8.00991 73.6445 6.73142 73.5463 5.66929 74.1556C4.23345 74.9811 3.72205 76.8287 4.54815 78.2831C5.37425 79.7376 7.22314 80.229 8.67865 79.4035C8.777 79.3445 8.87535 79.2855 8.95402 79.2266L14.7171 82.391C14.2843 83.3541 14.2843 84.4941 14.8547 85.4769C15.7792 87.0886 17.8444 87.6389 19.4573 86.7151C21.0702 85.7914 21.6209 83.7276 20.6965 82.1159C19.772 80.5042 17.7068 79.9538 16.0939 80.8776C15.9365 80.9759 15.7792 81.0741 15.6415 81.1921L9.89814 78.0473C10.2522 77.2611 10.2718 76.3373 9.89814 75.5118L11.7864 73.3497C13.3599 74.4308 15.4842 74.588 17.2544 73.5856C19.713 72.1704 20.5588 69.0453 19.1426 66.5884C17.7264 64.1315 14.599 63.2863 12.1404 64.7015V64.6425Z" fill="white"/>
<path d="M21.8757 20.7066C19.9874 20.8835 18.6106 22.5738 18.8073 24.441C18.8663 25.1093 19.122 25.699 19.5154 26.1903L15.4832 31.1434C15.1685 31.0451 14.8145 31.0058 14.4604 31.0451C14.4604 31.0451 14.4407 31.0451 14.4211 31.0451L11.8838 27.6645C13.8113 26.1707 14.9521 23.7531 14.6964 21.1587C14.3031 17.1294 10.7036 14.1811 6.6518 14.5742C2.59997 14.9673 -0.350388 18.5838 0.0429931 22.6131C0.436374 26.6424 4.03581 29.5907 8.08764 29.1976C8.91374 29.1189 9.7005 28.8831 10.4086 28.5686L12.8476 31.8117C12.3165 32.3424 12.0215 33.1089 12.1001 33.9148C12.2378 35.3496 13.5163 36.411 14.9718 36.2537C16.4273 36.0965 17.4698 34.8386 17.3124 33.3841C17.2731 32.9124 17.0961 32.4996 16.8404 32.1458L20.8332 27.2321C21.3446 27.4483 21.9347 27.5662 22.5444 27.5072C24.4326 27.3303 25.8095 25.64 25.6128 23.7728C25.4358 21.8859 23.7442 20.51 21.8757 20.7066Z" fill="white"/>
<path d="M153.223 21.7891H169.568C173.679 21.7891 177.435 22.2411 180.858 23.1649C184.202 24.0494 186.936 25.6021 189.06 27.7838C191.125 29.9262 192.148 32.7762 192.148 36.3731C192.148 39.0855 191.459 41.4441 190.102 43.4686C188.745 45.5127 186.896 47.0261 184.575 48.0089V48.2054C185.913 48.7361 187.152 49.424 188.293 50.3282C189.394 51.193 190.378 52.2151 191.223 53.414C192.03 54.554 192.679 55.8512 193.151 57.286C193.603 58.7405 193.82 60.2933 193.82 61.905C193.82 66.5632 192.089 70.2977 188.647 73.1083C185.165 75.9583 179.914 77.3735 172.892 77.3735H153.203V21.7891H153.223ZM167.542 32.678V43.9206H171.141C173.364 43.9206 175.036 43.4096 176.157 42.3875C177.278 41.4244 177.848 40.0093 177.848 38.1617C177.848 36.1962 177.14 34.8007 175.724 33.9359C174.288 33.1104 172.597 32.678 170.63 32.678H167.542ZM167.542 54.8488V66.4453H171.338C176.806 66.4453 179.54 64.5584 179.54 60.765C179.54 58.3867 178.812 56.8143 177.337 56.0281C175.901 55.2419 173.836 54.8488 171.141 54.8488H167.542Z" fill="white"/>
<path d="M238.117 48.5852C239.297 51.219 239.887 54.0493 239.887 57.0565V57.4103C239.887 57.5479 239.887 57.6855 239.847 57.8427L239.769 58.511H234.911V58.5896H207.944C208.259 60.791 209.203 62.6779 210.796 64.2699C212.803 66.2551 215.163 67.2575 217.857 67.2575C220.552 67.2575 222.932 66.2748 224.919 64.2699L224.997 64.1913L225.115 64.0341L225.233 63.9161L225.312 63.7982L232.059 73.4292C230.131 75.0016 228.164 76.1809 226.177 76.9867C223.502 78.0285 220.749 78.5591 217.857 78.5591C213.963 78.5591 210.344 77.6354 207 75.7681C203.578 73.8813 200.863 71.3064 198.877 68.0437C196.831 64.781 195.828 61.1055 195.828 57.0369C195.828 53.9904 196.418 51.16 197.598 48.5656C198.778 45.9515 200.391 43.6911 202.457 41.7453C204.542 39.7601 206.902 38.2663 209.518 37.2443C212.212 36.2026 214.986 35.6719 217.877 35.6719C220.768 35.6719 223.522 36.2026 226.197 37.2443C228.833 38.2663 231.193 39.7601 233.298 41.706C235.363 43.6125 236.976 45.8925 238.156 48.5656L238.117 48.5852ZM217.857 47.0128C216.107 47.0128 214.455 47.4649 212.921 48.3494C211.976 48.9194 211.072 49.7252 210.167 50.7866H225.528C224.643 49.7449 223.719 48.939 222.775 48.3494C221.241 47.4649 219.588 47.0128 217.838 47.0128H217.857Z" fill="white"/>
<path d="M241.832 77.3735V21.8284L254.381 21.7891V52.5099H254.538L267.52 37.3165H282.213L267.717 54.5147L284.77 77.3931H269.133L254.401 57.7185V77.3931H241.852L241.832 77.3735Z" fill="white"/>
<path d="M301.196 67.2395H301.904C305.09 67.1413 306.683 64.9202 306.683 60.6158V37.2656H319.232V60.6158C319.232 71.9764 313.449 77.9712 301.904 78.6001H301.196C289.65 77.9712 283.867 71.9764 283.867 60.6158V37.2656H296.416V60.6158C296.416 64.9202 298.009 67.1413 301.196 67.2395Z" fill="white"/>
<path d="M341.773 47.7088C341.124 47.2567 340.278 47.0209 339.216 46.9619H338.508C335.322 47.0995 333.729 49.3205 333.729 53.625V77.3683H321.18V53.625C321.18 42.2054 326.962 36.2106 338.508 35.6406H339.216C340.082 35.6603 340.927 35.7389 341.773 35.8765V47.7088Z" fill="white"/>
<path d="M158.588 90.3487H154.517L153.219 85.2188H167.538L168.797 90.3487H163.781V107.743H158.608V90.3487H158.588Z" fill="white"/>
<path d="M182.625 96.0796C183.077 97.1409 183.293 98.2809 183.293 99.4995V99.6371C183.293 99.6371 183.293 99.755 183.293 99.814L183.254 100.089H181.405V100.128H171.158C171.276 101.013 171.649 101.78 172.239 102.428C173.006 103.234 173.892 103.627 174.914 103.627C175.937 103.627 176.842 103.214 177.589 102.428V102.389L177.668 102.33L177.707 102.291V102.251L180.304 106.163C179.576 106.792 178.828 107.283 178.061 107.597C177.039 108.03 175.996 108.226 174.895 108.226C173.419 108.226 172.043 107.853 170.764 107.106C169.466 106.339 168.443 105.298 167.676 103.981C166.909 102.664 166.516 101.17 166.516 99.5192C166.516 98.2809 166.732 97.1409 167.184 96.0992C167.637 95.0378 168.246 94.114 169.033 93.3475C169.82 92.5416 170.725 91.9323 171.708 91.5196C172.731 91.0872 173.793 90.8906 174.875 90.8906C175.957 90.8906 177.019 91.1068 178.042 91.5196C179.045 91.9323 179.95 92.5416 180.736 93.3278C181.523 94.0944 182.133 95.0182 182.585 96.0992L182.625 96.0796ZM174.934 95.4506C174.265 95.4506 173.636 95.6275 173.065 95.9813C172.711 96.2171 172.357 96.5513 172.023 96.964H177.865C177.53 96.5513 177.176 96.2171 176.822 95.9813C176.232 95.6275 175.603 95.4506 174.954 95.4506H174.934Z" fill="white"/>
<path d="M196.648 96.4104C196.216 96.037 195.763 95.7421 195.252 95.5456C194.721 95.349 194.17 95.2508 193.58 95.2508C192.498 95.2508 191.574 95.6242 190.807 96.3711C190.04 97.118 189.666 98.0614 189.666 99.1621C189.666 100.027 189.823 100.813 190.158 101.501C190.472 102.189 190.944 102.739 191.574 103.132C192.184 103.545 192.872 103.761 193.678 103.761C194.859 103.761 195.862 103.368 196.688 102.562L199.304 106.081C198.93 106.513 198.399 106.887 197.73 107.201C197.042 107.535 196.334 107.771 195.606 107.928C194.878 108.085 194.209 108.164 193.6 108.164C191.869 108.164 190.354 107.771 189.036 107.004C187.719 106.218 186.696 105.196 186.007 103.919C185.299 102.621 184.945 101.246 184.945 99.7714C184.945 98.4349 185.162 97.2163 185.594 96.1156C186.027 94.9952 186.637 94.0518 187.404 93.2656C188.151 92.499 189.076 91.8897 190.158 91.4377C191.22 91.0053 192.38 90.7891 193.619 90.7891C194.622 90.7891 195.626 90.966 196.589 91.3001C197.573 91.6539 198.419 92.1453 199.166 92.7742L196.688 96.3711L196.648 96.4104Z" fill="white"/>
<path d="M205.674 85.2188V92.4518C206.126 91.9604 206.697 91.5673 207.366 91.2725C208.054 90.9777 208.742 90.8401 209.45 90.8401C213.266 90.8401 215.194 93.2183 215.194 97.9945V107.743H210.434V98.3483C210.434 97.3656 210.218 96.6383 209.804 96.1666C209.391 95.6752 208.801 95.4394 208.054 95.4394C207.307 95.4394 206.736 95.6752 206.323 96.1666C205.89 96.658 205.674 97.3852 205.674 98.3483V107.743L200.914 107.783V85.2384H205.674V85.2188Z" fill="white"/>
<path d="M223.421 95.443C222.202 95.502 221.611 96.3865 221.611 98.1358V107.727H216.852V98.1358C216.852 93.5168 219.054 91.0796 223.441 90.8438H223.716C228.102 91.0796 230.305 93.4972 230.305 98.1358V107.727H225.545V98.1358C225.545 96.3865 224.936 95.4823 223.736 95.443H223.46H223.421Z" fill="white"/>
<path d="M236.301 107.138C234.943 106.371 233.881 105.33 233.075 104.013C232.268 102.676 231.875 101.182 231.875 99.5313C231.875 98.293 232.111 97.1334 232.583 96.072C233.055 95.0106 233.685 94.0868 234.511 93.3006C235.337 92.5144 236.281 91.9051 237.323 91.4727C238.385 91.0403 239.487 90.8438 240.608 90.8438C241.729 90.8438 242.85 91.06 243.912 91.4727C244.955 91.8658 245.899 92.4751 246.725 93.281C247.551 94.0868 248.181 95.0106 248.653 96.072C249.125 97.1334 249.361 98.293 249.361 99.5313C249.361 100.77 249.125 101.949 248.672 102.991C248.22 104.052 247.571 104.976 246.745 105.801C245.899 106.607 244.955 107.216 243.932 107.629C242.89 108.062 241.788 108.278 240.628 108.278C239.113 108.278 237.677 107.904 236.32 107.138H236.301ZM237.815 102.46C238.602 103.266 239.526 103.678 240.608 103.678C241.69 103.678 242.614 103.266 243.401 102.46C244.188 101.634 244.601 100.671 244.601 99.5313C244.601 98.7844 244.424 98.1161 244.05 97.4872C243.676 96.8582 243.185 96.3668 242.575 95.9934C241.965 95.6199 241.316 95.443 240.608 95.443C239.9 95.443 239.271 95.6199 238.661 95.9934C238.051 96.3668 237.559 96.8582 237.186 97.4872C236.812 98.1161 236.635 98.804 236.635 99.5313C236.635 100.671 237.028 101.634 237.835 102.46H237.815Z" fill="white"/>
<path d="M250.992 85.2188H255.752V107.704L250.992 107.763V85.2188Z" fill="white"/>
<path d="M261.797 107.138C260.439 106.371 259.377 105.33 258.571 104.013C257.764 102.676 257.371 101.182 257.371 99.5313C257.371 98.293 257.607 97.1334 258.079 96.072C258.551 95.0106 259.181 94.0868 260.007 93.3006C260.833 92.5144 261.777 91.9051 262.819 91.4727C263.882 91.0403 264.983 90.8438 266.104 90.8438C267.225 90.8438 268.346 91.06 269.409 91.4727C270.451 91.8658 271.395 92.4751 272.221 93.281C273.047 94.0868 273.677 95.0106 274.149 96.072C274.621 97.1334 274.857 98.293 274.857 99.5313C274.857 100.77 274.621 101.949 274.168 102.991C273.716 104.052 273.067 104.976 272.241 105.801C271.395 106.607 270.451 107.216 269.428 107.629C268.386 108.062 267.284 108.278 266.124 108.278C264.609 108.278 263.173 107.904 261.816 107.138H261.797ZM263.311 102.46C264.098 103.266 265.022 103.678 266.104 103.678C267.186 103.678 268.11 103.266 268.897 102.46C269.684 101.634 270.097 100.671 270.097 99.5313C270.097 98.7844 269.92 98.1161 269.546 97.4872C269.173 96.8582 268.681 96.3668 268.071 95.9934C267.461 95.6199 266.812 95.443 266.104 95.443C265.396 95.443 264.767 95.6199 264.157 95.9934C263.547 96.3668 263.055 96.8582 262.682 97.4872C262.308 98.1161 262.131 98.804 262.131 99.5313C262.131 100.671 262.524 101.634 263.331 102.46H263.311Z" fill="white"/>
<path d="M293.105 99.6651V108.274V109.453C293.105 111.537 292.416 113.325 291.02 114.799C290.371 115.487 289.505 116.038 288.423 116.431C287.42 116.804 286.417 117.001 285.414 117.001H284.588C282.326 116.942 280.517 116.215 279.179 114.799C278.274 113.817 277.724 112.952 277.546 112.205L282.09 109.394C282.149 110.22 282.444 110.947 283.034 111.517C283.605 112.107 284.293 112.382 285.08 112.382C285.709 112.382 286.28 112.185 286.791 111.812C287.302 111.438 287.656 110.967 287.873 110.377V110.318L287.912 110.239C287.932 110.161 287.951 110.082 287.971 110.023C288.01 109.886 288.03 109.768 288.05 109.65V109.552L288.089 109.493V109.394V107.724L287.971 107.783L287.853 107.822C286.87 108.254 285.827 108.471 284.726 108.471C283.27 108.471 281.913 108.077 280.654 107.311C279.395 106.564 278.373 105.503 277.625 104.146C276.858 102.79 276.484 101.277 276.484 99.6258C276.484 98.3678 276.701 97.2082 277.153 96.1272C277.586 95.0658 278.176 94.1224 278.963 93.2968C279.73 92.5106 280.615 91.9013 281.618 91.4689C282.621 91.0365 283.664 90.8203 284.726 90.8203C286.575 90.8203 287.951 91.0758 288.837 91.5869C291.689 92.8841 293.105 95.5768 293.105 99.6258V99.6651ZM282.306 102.476C283.093 103.301 283.998 103.694 285.021 103.694C286.044 103.694 286.968 103.282 287.755 102.476C288.522 101.67 288.915 100.707 288.915 99.5668C288.915 98.8396 288.738 98.1713 288.384 97.5423C288.03 96.9134 287.558 96.4023 286.948 96.0486C286.339 95.6948 285.709 95.5179 285.021 95.5179C284.332 95.5179 283.723 95.6948 283.132 96.0486C282.542 96.4023 282.051 96.9134 281.697 97.5423C281.343 98.1713 281.166 98.8592 281.166 99.5668C281.166 100.707 281.559 101.67 282.326 102.476H282.306Z" fill="white"/>
<path d="M299.341 88.2596C299.125 88.6527 298.83 88.9672 298.456 89.2031C298.082 89.4389 297.669 89.5765 297.197 89.5765C296.725 89.5765 296.332 89.4586 295.958 89.2227C295.584 88.9869 295.289 88.6527 295.053 88.2596C294.817 87.8272 294.719 87.3948 294.719 86.9034C294.719 86.4121 294.837 85.9796 295.053 85.5669C295.289 85.1541 295.584 84.8397 295.958 84.6038C296.332 84.3679 296.745 84.25 297.197 84.25C297.649 84.25 298.063 84.3679 298.456 84.6038C298.83 84.8397 299.125 85.1541 299.341 85.5669C299.557 85.9796 299.675 86.4121 299.675 86.9034C299.675 87.3948 299.557 87.8665 299.341 88.2596ZM299.656 91.5224V107.797H294.896V91.542H299.656V91.5224Z" fill="white"/>
<path d="M317.375 96.0796C317.827 97.1409 318.043 98.2809 318.043 99.4995V99.6371C318.043 99.6371 318.043 99.755 318.043 99.814L318.004 100.089H316.155V100.128H305.908C306.026 101.013 306.38 101.78 306.989 102.428C307.756 103.234 308.642 103.627 309.664 103.627C310.687 103.627 311.592 103.214 312.339 102.428V102.389L312.418 102.33L312.457 102.291V102.251L315.054 106.163C314.326 106.792 313.578 107.283 312.811 107.597C311.808 108.03 310.746 108.226 309.645 108.226C308.169 108.226 306.793 107.853 305.514 107.106C304.216 106.339 303.193 105.298 302.426 103.981C301.659 102.664 301.266 101.17 301.266 99.5192C301.266 98.2809 301.482 97.1409 301.934 96.0992C302.387 95.0378 302.996 94.114 303.783 93.3475C304.57 92.5416 305.475 91.9323 306.458 91.5196C307.481 91.0872 308.543 90.8906 309.625 90.8906C310.707 90.8906 311.769 91.1068 312.792 91.5196C313.795 91.9323 314.7 92.5416 315.486 93.3278C316.273 94.0944 316.883 95.0182 317.335 96.0992L317.375 96.0796ZM309.664 95.4506C308.996 95.4506 308.366 95.6275 307.796 95.9813C307.442 96.2171 307.088 96.5513 306.753 96.964H312.595C312.261 96.5513 311.907 96.2171 311.553 95.9813C310.962 95.6275 310.333 95.4506 309.684 95.4506H309.664Z" fill="white"/>
<path d="M322.079 102.613C323.023 103.615 324.184 104.127 325.541 104.127C326.898 104.127 327.665 103.674 327.665 102.79C327.665 102.318 327.272 101.984 326.485 101.748C325.934 101.611 325.049 101.375 323.83 101.041C322.846 100.766 322.02 100.254 321.352 99.5272C320.683 98.8 320.348 97.6797 320.348 96.1662C320.348 95.0066 320.624 94.0238 321.175 93.218C321.725 92.4121 322.453 91.8225 323.338 91.449C324.243 91.0559 325.226 90.8594 326.308 90.8594C326.918 90.8594 327.528 90.9576 328.157 91.1345C328.826 91.3507 329.436 91.6259 329.967 91.9601C330.557 92.3138 331.068 92.7069 331.52 93.1394L328.904 95.9107C328.137 95.3014 327.311 94.9869 326.407 94.9869C325.325 94.9869 324.774 95.3014 324.774 95.95C324.774 96.5397 325.167 96.9328 325.974 97.1686C326.859 97.4242 327.744 97.66 328.629 97.8762C329.613 98.1317 330.439 98.6231 331.088 99.3307C331.756 100.058 332.091 101.178 332.091 102.731C332.091 103.891 331.796 104.873 331.225 105.719C330.655 106.564 329.888 107.193 328.924 107.605C327.96 108.038 326.957 108.254 325.934 108.254C325.069 108.254 324.302 108.175 323.594 108.038C322.905 107.9 322.256 107.664 321.647 107.33C321.017 106.996 320.368 106.564 319.68 106.013L322.099 102.613H322.079Z" fill="white"/>
</g>
<defs>
<clipPath id="clip0_1958_8866">
<rect width="341.77" height="130.883" fill="white"/>
</clipPath>
</defs>
</svg>

