<svg width="654" height="728" viewBox="0 0 654 728" fill="none" xmlns="http://www.w3.org/2000/svg">
<path d="M149.642 131.3C234.32 62.7529 418.337 42.8556 547.215 160.709C679.265 281.514 693.816 491.638 561.984 629.279C502.906 690.939 429.606 723.408 344.599 727.891C297.665 730.405 208.063 702.964 208.173 701.434C212.002 701.434 215.831 701.106 219.551 701.434C314.075 709.852 393.94 678.913 455.206 606.976C538.572 509.021 536.493 370.833 465.053 283.591C419.869 228.491 336.394 205.751 267.032 230.131C262.218 231.88 257.404 233.52 252.044 235.378C217.8 200.503 183.994 166.175 149.642 131.191V131.3Z" fill="white"/>
<path d="M116.273 243.25C126.846 243.25 135.418 234.684 135.418 224.118C135.418 213.552 126.846 204.986 116.273 204.986C105.699 204.986 97.127 213.552 97.127 224.118C97.127 234.684 105.699 243.25 116.273 243.25Z" fill="white"/>
<path d="M18.4666 35.4215C28.2549 35.4215 36.19 27.4922 36.19 17.7108C36.19 7.92938 28.2549 0 18.4666 0C8.67821 0 0.743164 7.92938 0.743164 17.7108C0.743164 27.4922 8.67821 35.4215 18.4666 35.4215Z" fill="white"/>
<path d="M26.7808 232.755C38.2006 232.755 47.4581 223.504 47.4581 212.092C47.4581 200.68 38.2006 191.429 26.7808 191.429C15.3611 191.429 6.10352 200.68 6.10352 212.092C6.10352 223.504 15.3611 232.755 26.7808 232.755Z" fill="white"/>
<path d="M113.538 353.778C121.453 353.778 127.87 347.366 127.87 339.456C127.87 331.547 121.453 325.135 113.538 325.135C105.623 325.135 99.2061 331.547 99.2061 339.456C99.2061 347.366 105.623 353.778 113.538 353.778Z" fill="white"/>
<path d="M30.9384 366.897C45.1376 366.897 56.6483 355.395 56.6483 341.206C56.6483 327.017 45.1376 315.514 30.9384 315.514C16.7392 315.514 5.22852 327.017 5.22852 341.206C5.22852 355.395 16.7392 366.897 30.9384 366.897Z" fill="white"/>
<path d="M69.8855 578.224C77.5591 578.224 83.7798 572.008 83.7798 564.339C83.7798 556.671 77.5591 550.455 69.8855 550.455C62.2119 550.455 55.9912 556.671 55.9912 564.339C55.9912 572.008 62.2119 578.224 69.8855 578.224Z" fill="white"/>
<path d="M99.5341 618.128C105.516 618.128 110.365 613.282 110.365 607.304C110.365 601.327 105.516 596.481 99.5341 596.481C93.5523 596.481 88.7031 601.327 88.7031 607.304C88.7031 613.282 93.5523 618.128 99.5341 618.128Z" fill="white"/>
<path d="M130.386 518.641C138.543 518.641 145.155 512.033 145.155 503.882C145.155 495.731 138.543 489.123 130.386 489.123C122.229 489.123 115.616 495.731 115.616 503.882C115.616 512.033 122.229 518.641 130.386 518.641Z" fill="white"/>
<path d="M39.69 513.284C51.1098 513.284 60.3673 504.033 60.3673 492.622C60.3673 481.21 51.1098 471.959 39.69 471.959C28.2702 471.959 19.0127 481.21 19.0127 492.622C19.0127 504.033 28.2702 513.284 39.69 513.284Z" fill="white"/>
<path d="M89.3599 540.069C100.78 540.069 110.037 530.818 110.037 519.406C110.037 507.995 100.78 498.744 89.3599 498.744C77.9402 498.744 68.6826 507.995 68.6826 519.406C68.6826 530.818 77.9402 540.069 89.3599 540.069Z" fill="white"/>
<path d="M402.583 597.356C409.109 597.356 414.399 592.07 414.399 585.549C414.399 579.028 409.109 573.741 402.583 573.741C396.058 573.741 390.768 579.028 390.768 585.549C390.768 592.07 396.058 597.356 402.583 597.356Z" fill="white"/>
<path d="M462.427 538.539C466.294 538.539 469.428 535.406 469.428 531.542C469.428 527.678 466.294 524.545 462.427 524.545C458.56 524.545 455.425 527.678 455.425 531.542C455.425 535.406 458.56 538.539 462.427 538.539Z" fill="white"/>
<path d="M89.9071 96.972C93.7741 96.972 96.909 93.8394 96.909 89.9751C96.909 86.1109 93.7741 82.9783 89.9071 82.9783C86.0401 82.9783 82.9053 86.1109 82.9053 89.9751C82.9053 93.8394 86.0401 96.972 89.9071 96.972Z" fill="white"/>
<path d="M125.244 434.788C132.978 434.788 139.248 428.523 139.248 420.795C139.248 413.066 132.978 406.801 125.244 406.801C117.51 406.801 111.24 413.066 111.24 420.795C111.24 428.523 117.51 434.788 125.244 434.788Z" fill="white"/>
<path d="M141.108 474.911C146.304 474.911 150.517 470.702 150.517 465.509C150.517 460.316 146.304 456.107 141.108 456.107C135.912 456.107 131.699 460.316 131.699 465.509C131.699 470.702 135.912 474.911 141.108 474.911Z" fill="white"/>
<path d="M438.139 571.008C443.335 571.008 447.548 566.799 447.548 561.606C447.548 556.414 443.335 552.204 438.139 552.204C432.943 552.204 428.73 556.414 428.73 561.606C428.73 566.799 432.943 571.008 438.139 571.008Z" fill="white"/>
<path d="M181.04 669.183C187.566 669.183 192.856 663.896 192.856 657.376C192.856 650.855 187.566 645.568 181.04 645.568C174.515 645.568 169.225 650.855 169.225 657.376C169.225 663.896 174.515 669.183 181.04 669.183Z" fill="white"/>
<path d="M260.358 673.665C264.225 673.665 267.36 670.532 267.36 666.668C267.36 662.804 264.225 659.671 260.358 659.671C256.491 659.671 253.356 662.804 253.356 666.668C253.356 670.532 256.491 673.665 260.358 673.665Z" fill="white"/>
<path d="M222.067 676.945C227.263 676.945 231.476 672.735 231.476 667.543C231.476 662.35 227.263 658.141 222.067 658.141C216.871 658.141 212.658 662.35 212.658 667.543C212.658 672.735 216.871 676.945 222.067 676.945Z" fill="white"/>
<path d="M311.012 612.771C315.604 612.771 319.327 609.051 319.327 604.462C319.327 599.873 315.604 596.153 311.012 596.153C306.42 596.153 302.697 599.873 302.697 604.462C302.697 609.051 306.42 612.771 311.012 612.771Z" fill="white"/>
<path d="M231.912 650.379C242.788 650.379 251.605 641.568 251.605 630.7C251.605 619.832 242.788 611.021 231.912 611.021C221.036 611.021 212.22 619.832 212.22 630.7C212.22 641.568 221.036 650.379 231.912 650.379Z" fill="white"/>
<path d="M218.565 597.137C226.299 597.137 232.569 590.872 232.569 583.144C232.569 575.415 226.299 569.15 218.565 569.15C210.831 569.15 204.562 575.415 204.562 583.144C204.562 590.872 210.831 597.137 218.565 597.137Z" fill="white"/>
<path d="M156.534 645.787C173.754 645.787 187.714 631.837 187.714 614.629C187.714 597.421 173.754 583.471 156.534 583.471C139.313 583.471 125.354 597.421 125.354 614.629C125.354 631.837 139.313 645.787 156.534 645.787Z" fill="white"/>
<path d="M271.08 607.195C278.814 607.195 285.084 600.93 285.084 593.201C285.084 585.473 278.814 579.208 271.08 579.208C263.346 579.208 257.076 585.473 257.076 593.201C257.076 600.93 263.346 607.195 271.08 607.195Z" fill="white"/>
<path d="M19.2321 73.7949C24.6096 73.7949 28.969 69.4387 28.969 64.065C28.969 58.6912 24.6096 54.335 19.2321 54.335C13.8545 54.335 9.49512 58.6912 9.49512 64.065C9.49512 69.4387 13.8545 73.7949 19.2321 73.7949Z" fill="white"/>
<path d="M58.07 73.6854C65.6228 73.6854 71.7455 67.5671 71.7455 60.0197C71.7455 52.4724 65.6228 46.354 58.07 46.354C50.5172 46.354 44.3945 52.4724 44.3945 60.0197C44.3945 67.5671 50.5172 73.6854 58.07 73.6854Z" fill="white"/>
<path d="M182.353 613.317C187.386 605.665 185.198 595.497 177.649 590.578C176.008 589.484 174.257 588.719 172.397 588.282L175.57 557.999C180.821 556.905 185.745 553.844 188.917 549.034C195.263 539.413 192.528 526.513 182.9 520.172C173.273 513.831 160.363 516.564 154.018 526.185C151.173 530.558 150.188 535.587 150.845 540.288L135.091 543.677C133.887 541.6 132.137 539.741 129.949 538.32C122.29 533.291 112.116 535.478 107.193 543.021C102.16 550.674 104.348 560.841 111.897 565.761C119.446 570.68 129.73 568.603 134.653 561.06C136.732 557.889 137.607 554.282 137.279 550.674L152.924 547.285C154.565 550.237 156.862 552.97 159.925 554.938C162.442 556.577 165.177 557.561 168.021 558.108L164.958 588.173C160.91 589.047 157.3 591.452 154.893 595.169C149.86 602.822 152.048 612.99 159.597 617.909C167.146 622.829 177.43 620.752 182.353 613.208V613.317Z" fill="white"/>
<path d="M120.978 209.687C113.976 209.687 108.396 215.372 108.396 222.259C108.396 224.774 109.162 227.069 110.366 229.037L89.7977 251.121C86.4062 248.825 82.2489 247.404 77.8727 247.404C67.917 247.404 59.6023 254.292 57.3048 263.475L34.5488 262.6C33.783 257.134 29.188 252.87 23.499 252.87C17.263 252.87 12.3398 257.899 12.3398 264.022C12.3398 270.144 17.3724 275.173 23.499 275.173C27.9846 275.173 31.8137 272.549 33.6736 268.723L56.8672 269.597C57.4142 280.748 66.7135 289.713 78.0915 289.713C79.842 289.713 81.5924 289.494 83.2335 289.057L89.2507 302.395C87.9379 303.925 87.172 305.893 87.172 307.971C87.172 312.672 91.0012 316.498 95.7055 316.498C100.41 316.498 104.239 312.672 104.239 307.971C104.239 303.27 100.41 299.443 95.7055 299.443C95.3773 299.443 95.1585 299.443 94.8303 299.443L89.0319 286.652C95.2679 282.935 99.3158 276.157 99.3158 268.504C99.3158 263.475 97.5654 258.883 94.6115 255.166L115.179 233.082C116.93 234.066 119.009 234.613 121.197 234.613C128.198 234.613 133.778 228.928 133.778 222.04C133.778 215.153 128.089 209.468 121.197 209.468L120.978 209.687Z" fill="white"/>
<path d="M290.991 667.871C300.658 667.871 308.496 660.039 308.496 650.379C308.496 640.718 300.658 632.887 290.991 632.887C281.323 632.887 273.486 640.718 273.486 650.379C273.486 660.039 281.323 667.871 290.991 667.871Z" fill="white"/>
<path d="M361.009 632.559C373.577 632.559 383.765 622.378 383.765 609.819C383.765 597.26 373.577 587.079 361.009 587.079C348.441 587.079 338.253 597.26 338.253 609.819C338.253 622.378 348.441 632.559 361.009 632.559Z" fill="white"/>
<path d="M279.319 597.175L268.448 600.141L285.765 663.526L296.636 660.561L279.319 597.175Z" fill="white"/>
<path d="M345.007 612.808L287.571 644.793L293.057 654.629L350.492 622.645L345.007 612.808Z" fill="white"/>
<path d="M67.4793 359.463C53.8038 367.335 49.0995 384.717 56.9765 398.383C57.7424 399.695 58.5082 400.788 59.4928 401.991L49.6465 413.251C44.5045 409.534 37.3932 408.988 31.4854 412.377C23.499 416.968 20.6545 427.245 25.2494 435.335C29.8444 443.425 40.1283 446.158 48.2242 441.567C48.7712 441.239 49.3183 440.911 49.7559 440.583L81.8112 458.184C79.4043 463.541 79.4043 469.882 82.577 475.348C87.719 484.313 99.2064 487.374 108.177 482.236C117.149 477.098 120.212 465.618 115.07 456.654C109.928 447.689 98.4406 444.628 89.4695 449.766C88.5942 450.313 87.719 450.859 86.9532 451.515L55.0073 434.023C56.9765 429.65 57.0859 424.512 55.0073 419.92L65.51 407.894C74.2623 413.907 86.0779 414.782 95.9243 409.206C109.6 401.335 114.304 383.952 106.427 370.286C98.55 356.621 81.1548 351.92 67.4793 359.791V359.463Z" fill="white"/>
<path d="M121.634 115.12C111.131 116.104 103.473 125.506 104.567 135.892C104.895 139.609 106.317 142.889 108.505 145.622L86.0777 173.172C84.3272 172.625 82.3579 172.407 80.3886 172.625C80.3886 172.625 80.2793 172.625 80.1698 172.625L66.0568 153.821C76.7783 145.512 83.1237 132.065 81.7015 117.634C79.5134 95.2226 59.4925 78.8237 36.9554 81.0103C14.4182 83.1968 -1.99239 103.313 0.195682 125.724C2.38376 148.136 22.4047 164.535 44.9418 162.349C49.5368 161.911 53.9129 160.599 57.8515 158.85L71.4175 176.889C68.4636 179.841 66.8226 184.104 67.2602 188.587C68.026 196.568 75.1373 202.471 83.2332 201.597C91.329 200.722 97.1274 193.725 96.2522 185.635C96.0334 183.011 95.0488 180.715 93.6265 178.747L115.835 151.416C118.68 152.619 121.962 153.275 125.354 152.947C135.856 151.963 143.515 142.561 142.421 132.175C141.436 121.679 132.027 114.027 121.634 115.12Z" fill="white"/>
</svg>
